<svg xmlns="http://www.w3.org/2000/svg" viewBox="0 0 3000 997" preserveAspectRatio="xMidYMid" width="3000" height="997" style="shape-rendering: auto; display: block; background: rgb(163, 186, 223);" xmlns:xlink="http://www.w3.org/1999/xlink"><g style="transform:translate(1500.0px,498.5px) scale(1,-1) translate(-1500.0px,-498.5px)"><defs>
<linearGradient y2="1" y1="0" x2="0" x1="0" id="lg-bk-n2c88aimwtj">
  <stop offset="0" stop-opacity="0" stop-color="#dffff9"></stop>
  <stop offset="0.5750000000000001" stop-opacity="1" stop-color="#dffff9"></stop>
</linearGradient>
<linearGradient y2="1" y1="0" x2="0" x1="0" id="lg-jg6mq6wfbyj">
  <stop offset="0" stop-color="rgba(95, 202, 255, 0.394)"></stop>
  <stop offset="0.37" stop-color="#0075fc"></stop>
  <stop offset="1" stop-color="#003067"></stop>
</linearGradient>
</defs>
<rect fill="url(#lg-bk-n2c88aimwtj)" height="997" width="3000" y="0" x="0"></rect><g>
<path opacity="0.4" fill="url(#lg-jg6mq6wfbyj)" d="M0 458.62
C1500 458.62 1500 609.3664 3000 609.3664
C4500 609.3664 4500 458.62 6000 458.62
C7500 458.62 7500 609.3664 9000 609.3664
C10500 609.3664 10500 458.62 12000 458.62
L12000 997 L0 997 Z">
  <animateTransform values="-6000 0;0 0" begin="0s" keyTimes="0;1" repeatCount="indefinite" dur="10s" type="translate" attributeName="transform"></animateTransform>
</path>
<animateTransform values="0 0;0 10; 0" begin="0s" keyTimes="0;0.5;1" keySplines="0.3 0 0.7 1;0.3 0 0.7 1" calcMode="spline" repeatCount="indefinite" dur="10s" type="translate" attributeName="transform"></animateTransform>
</g><g>
<path opacity="0.4" fill="url(#lg-jg6mq6wfbyj)" d="M0 458.62
C1500 458.62 1500 609.3664 3000 609.3664
C4500 609.3664 4500 458.62 6000 458.62
C7500 458.62 7500 609.3664 9000 609.3664
C10500 609.3664 10500 458.62 12000 458.62
L12000 997 L0 997 Z">
  <animateTransform values="-6000 0;0 0" begin="-0.7000000000000001s" keyTimes="0;1" repeatCount="indefinite" dur="10s" type="translate" attributeName="transform"></animateTransform>
</path>
<animateTransform values="0 0;0 10; 0" begin="-3.3333333333333335s" keyTimes="0;0.5;1" keySplines="0.3 0 0.7 1;0.3 0 0.7 1" calcMode="spline" repeatCount="indefinite" dur="10s" type="translate" attributeName="transform"></animateTransform>
</g><g>
<path opacity="0.4" fill="url(#lg-jg6mq6wfbyj)" d="M0 458.62
C1500 458.62 1500 609.3664 3000 609.3664
C4500 609.3664 4500 458.62 6000 458.62
C7500 458.62 7500 609.3664 9000 609.3664
C10500 609.3664 10500 458.62 12000 458.62
L12000 997 L0 997 Z">
  <animateTransform values="-6000 0;0 0" begin="-1.4000000000000001s" keyTimes="0;1" repeatCount="indefinite" dur="10s" type="translate" attributeName="transform"></animateTransform>
</path>
<animateTransform values="0 0;0 10; 0" begin="-6.666666666666667s" keyTimes="0;0.5;1" keySplines="0.3 0 0.7 1;0.3 0 0.7 1" calcMode="spline" repeatCount="indefinite" dur="10s" type="translate" attributeName="transform"></animateTransform>
</g><g></g></g><!-- [ldio] generated by https://loading.io --></svg>


